<svg xmlns="http://www.w3.org/2000/svg" width="150" height="50" viewBox="0,0,150,50"><rect width="100%" height="100%" fill="yellow"/><path fill="#e872e8" d="M109.33 47.07L109.28 47.02L109.26 47.00Q108.43 47.31 106.53 47.62L106.49 47.58L106.45 47.54Q107.72 45.34 108.74 44.05L108.88 44.19L108.84 44.14Q110.63 44.49 110.78 44.49L110.76 44.47L110.65 44.36Q111.05 44.53 111.59 44.41L111.50 44.33L111.64 44.47Q112.20 44.27 112.39 44.27L112.50 44.38L112.39 44.27Q114.94 44.00 114.87 41.83L114.94 41.91L114.94 41.91Q114.87 40.39 114.76 34.15L114.84 34.23L114.68 34.07Q114.69 30.58 114.77 26.43L114.76 26.42L116.22 26.29L116.29 26.35Q116.77 26.07 117.45 25.84L117.52 25.91L117.52 25.91Q117.35 30.39 117.39 34.77L117.42 34.80L117.33 34.70Q117.46 39.17 117.99 43.55L117.95 43.51L117.83 43.39Q117.97 43.75 117.97 44.02L117.94 43.99L118.07 44.13Q117.95 45.64 116.27 46.02L116.36 46.11L116.35 46.10Q113.10 46.35 109.25 46.99ZM116.10 22.85L114.07 19.84L113.93 19.69Q114.96 18.28 116.78 15.50L116.79 15.51L116.93 15.65Q117.55 16.50 118.88 18.33L118.92 18.36L116.20 22.95ZM119.07 49.42L119.08 49.44L119.03 49.38Q119.67 49.53 120.43 49.19L120.36 49.12L120.49 49.25Q120.78 48.51 120.78 48.05L120.77 48.05L120.84 48.11Q120.81 47.74 120.70 47.13L120.56 46.99L120.54 46.97Q119.33 40.70 119.33 32.78L119.30 32.75L119.21 32.67Q119.20 29.80 119.36 26.91L119.52 27.08L119.39 26.94Q118.80 27.08 117.66 27.38L117.71 27.43L117.69 27.41Q117.78 27.00 117.82 26.47L117.85 26.50L117.86 25.34L117.89 25.36Q116.22 26.06 114.43 26.09L114.49 26.15L114.46 26.12Q114.29 30.33 114.32 33.91L114.44 34.02L114.54 41.85L114.51 41.82Q114.61 43.83 112.44 43.94L112.48 43.98L112.45 43.95Q112.25 43.98 111.74 44.03L111.66 43.96L111.69 43.98Q111.21 44.07 110.94 44.07L110.87 44.01L110.97 44.10Q110.44 44.03 108.88 43.62L108.76 43.49L108.92 43.65Q108.46 44.26 107.35 45.93L107.36 45.93L105.77 48.19L105.72 48.14Q106.64 48.00 108.28 47.62L108.27 47.61L107.77 48.29L107.33 49.03L107.27 48.97Q109.50 48.76 110.83 48.84L110.88 48.89L110.85 48.86Q113.14 49.02 119.08 49.43ZM116.17 23.68L116.04 23.55L116.45 23.09L116.48 23.12Q116.79 23.50 117.74 25.10L117.70 25.06L117.84 25.20Q119.33 22.05 120.89 18.97L120.76 18.84L120.77 18.85Q119.77 17.23 118.82 15.94L118.98 16.11L118.80 15.92Q118.70 16.24 118.36 16.77L118.34 16.76L118.27 16.69Q117.94 16.12 116.95 14.83L116.93 14.81L116.89 14.77Q115.79 16.45 113.47 19.80L113.53 19.87L113.55 19.88Q114.34 20.98 116.05 23.57Z"/><path fill="#83e1e1" d="M79.68 47.02L79.78 47.12L79.77 47.11Q78.83 47.31 76.93 47.62L76.88 47.57L76.79 47.48Q78.23 45.46 79.26 44.16L79.12 44.02L79.28 44.19Q80.93 44.39 81.09 44.39L81.05 44.35L81.06 44.37Q81.36 44.44 81.89 44.32L81.99 44.42L81.91 44.34Q82.66 44.33 82.85 44.33L82.88 44.36L82.79 44.27Q85.39 44.06 85.32 41.89L85.38 41.95L85.30 41.87Q85.28 40.40 85.17 34.16L85.21 34.20L85.14 34.13Q85.09 30.58 85.16 26.43L85.26 26.52L86.56 26.23L86.60 26.27Q87.15 26.06 87.84 25.83L87.83 25.82L87.99 25.97Q87.60 30.24 87.64 34.61L87.65 34.62L87.83 34.81Q87.80 39.11 88.33 43.49L88.35 43.51L88.26 43.42Q88.42 43.81 88.42 44.08L88.37 44.02L88.40 44.06Q88.45 45.74 86.77 46.12L86.66 46.01L86.62 45.96Q83.66 46.50 79.81 47.15ZM86.57 22.93L84.39 19.75L84.44 19.80Q85.46 18.38 87.28 15.60L87.25 15.57L87.14 15.46Q87.86 16.40 89.19 18.23L89.31 18.36L86.50 22.85ZM89.46 49.42L89.62 49.58L89.57 49.52Q90.15 49.61 90.92 49.27L90.90 49.26L90.79 49.14Q91.24 48.57 91.24 48.12L91.15 48.02L91.17 48.04Q91.15 47.68 91.03 47.07L90.98 47.02L91.00 47.03Q89.60 40.57 89.60 32.65L89.58 32.63L89.77 32.82Q89.73 29.93 89.89 27.04L89.85 27.00L89.81 26.97Q89.34 27.22 88.20 27.52L88.07 27.39L88.17 27.49Q88.18 27.01 88.22 26.47L88.22 26.47L88.36 25.44L88.40 25.48Q86.58 26.01 84.79 26.05L84.83 26.09L84.85 26.11Q84.82 30.46 84.85 34.04L84.76 33.94L84.93 41.84L84.97 41.88Q85.08 43.89 82.91 44.01L82.76 43.86L82.91 44.01Q82.65 43.98 82.14 44.04L82.00 43.90L82.14 44.04Q81.49 43.96 81.23 43.96L81.26 43.99L81.32 44.06Q80.90 44.09 79.34 43.67L79.22 43.56L79.21 43.55Q78.76 44.15 77.65 45.83L77.62 45.79L76.11 48.13L76.24 48.27Q76.98 47.94 78.62 47.55L78.64 47.58L78.28 48.40L77.76 49.06L77.66 48.96Q80.03 48.89 81.36 48.97L81.34 48.95L81.31 48.91Q83.59 49.07 89.53 49.49ZM86.55 23.67L86.44 23.55L86.79 23.03L86.83 23.07Q87.15 23.46 88.10 25.06L88.14 25.10L88.15 25.11Q89.66 21.97 91.22 18.89L91.32 18.99L91.33 19.00Q90.15 17.21 89.20 15.92L89.23 15.95L89.35 16.07Q89.17 16.31 88.83 16.84L88.74 16.76L88.86 16.87Q88.32 16.11 87.33 14.81L87.33 14.81L87.27 14.75Q86.08 16.34 83.76 19.69L83.89 19.82L83.87 19.80Q84.69 20.92 86.40 23.51Z"/><path fill="#7fe5b2" d="M52.43 33.02L52.46 33.05L52.45 33.04Q55.52 32.65 58.72 32.76L58.74 32.78L58.74 32.78Q58.53 30.06 58.53 27.66L58.59 27.72L58.62 27.75Q58.54 25.20 58.73 22.65L58.85 22.77L58.72 22.64Q57.61 24.46 52.39 32.98ZM62.35 40.39L62.27 40.31L62.22 40.26Q60.65 40.06 58.86 39.99L58.76 39.88L58.81 39.93Q58.52 37.48 58.41 35.00L58.48 35.07L58.52 35.11Q53.26 35.00 48.54 36.40L48.47 36.33L48.39 36.25Q48.50 35.75 48.69 34.77L48.68 34.76L48.80 34.87Q50.63 31.75 54.21 25.47L54.13 25.40L54.16 25.42Q57.00 20.50 60.42 16.61L60.37 16.55L60.49 16.68Q61.40 16.52 63.08 16.26L62.91 16.09L62.96 16.14Q61.03 22.54 61.03 29.59L61.05 29.61L61.12 29.68Q61.16 31.21 61.24 32.69L61.21 32.67L62.47 32.74L62.48 32.75Q63.14 32.84 63.75 32.96L63.63 32.84L63.71 32.92Q63.74 33.82 64.00 35.76L64.00 35.76L64.15 35.90Q62.78 35.49 61.29 35.30L61.26 35.26L61.33 35.34Q61.65 37.44 62.33 40.37ZM64.03 32.59L64.02 32.58L63.85 32.41Q63.70 32.38 63.51 32.38L63.46 32.33L63.16 32.41L63.16 32.41Q62.97 30.84 62.97 29.44L63.14 29.61L63.13 29.60Q63.04 23.11 65.10 17.10L65.08 17.08L65.07 17.07Q64.27 17.30 62.82 17.68L62.91 17.77L62.92 17.77Q63.07 16.94 63.53 15.53L63.67 15.67L63.56 15.56Q62.39 16.06 60.33 16.29L60.24 16.20L60.30 16.26Q56.38 20.60 51.17 29.97L51.12 29.92L53.16 26.21L53.21 26.26Q52.72 27.22 52.46 27.79L52.55 27.88L48.04 36.85L48.00 36.81Q48.79 36.80 49.93 36.42L49.81 36.30L49.69 36.56L49.61 36.48Q49.58 37.25 49.27 38.51L49.22 38.45L49.24 38.47Q53.31 37.10 58.14 37.29L58.22 37.36L58.22 37.36Q58.28 38.34 58.47 40.32L58.49 40.34L58.51 40.35Q59.58 40.36 60.65 40.48L60.51 40.34L60.54 40.36Q60.66 41.02 60.93 42.39L61.00 42.46L61.06 42.52Q62.94 42.73 65.94 43.64L65.91 43.61L65.97 43.67Q64.92 41.48 64.01 38.20L63.95 38.14L65.38 38.58L65.47 38.67Q66.06 38.81 66.75 39.15L66.74 39.15L66.84 39.24Q66.02 36.71 65.86 35.03L65.78 34.95L65.97 35.14Q65.25 34.84 64.11 34.61L64.13 34.64L64.25 34.75Q63.85 33.28 63.85 32.41ZM56.00 32.40L56.00 32.40L55.99 32.39Q56.78 31.13 58.34 28.58L58.22 28.46L58.35 28.59Q58.17 29.36 58.14 30.31L58.33 30.50L58.14 30.31Q58.33 31.49 58.37 32.45L58.28 32.36L58.18 32.26Q57.64 32.25 57.07 32.25L57.17 32.35L57.17 32.35Q56.55 32.34 55.94 32.34Z"/><path fill="#e65aa0" d="M28.92 20.13L28.92 20.13L29.01 20.23Q24.67 20.18 20.97 19.19L20.85 19.07L20.92 19.14Q22.47 23.73 22.66 28.56L22.61 28.52L22.54 28.45Q22.76 33.28 21.54 37.88L21.66 38.00L21.59 37.92Q24.29 37.20 27.79 37.05L27.83 37.09L27.81 37.07Q31.84 36.99 33.63 34.55L33.66 34.58L33.51 34.43Q35.13 32.47 35.32 28.36L35.23 28.27L35.39 28.43Q35.29 26.50 34.83 24.79L34.93 24.88L34.98 24.93Q33.66 20.16 28.94 20.16ZM17.04 42.17L17.01 42.14L16.92 42.05Q19.90 36.47 19.90 29.77L19.80 29.67L19.85 29.72Q19.87 21.20 15.56 14.20L15.57 14.21L15.50 14.14Q20.93 16.97 29.19 17.17L29.13 17.11L29.05 17.03Q37.94 17.24 38.28 24.40L38.41 24.52L38.34 24.45Q38.45 27.15 38.41 28.59L38.45 28.63L38.42 28.61Q38.24 33.18 37.40 35.35L37.56 35.51L37.39 35.34Q37.09 36.56 36.33 37.40L36.37 37.44L36.35 37.43Q34.88 38.85 32.25 39.34L32.23 39.31L32.23 39.32Q30.70 39.66 27.70 39.88L27.78 39.97L27.69 39.88Q21.52 40.29 16.91 42.04ZM34.85 41.94L34.93 42.01L34.96 42.05Q37.62 41.63 39.26 40.14L39.23 40.11L39.25 40.13Q40.49 38.40 40.45 35.66L40.38 35.59L40.49 35.70Q40.42 34.26 40.27 30.76L40.28 30.77L40.05 26.35L39.94 26.24Q39.79 24.00 38.84 21.91L38.83 21.90L38.80 21.86Q38.23 20.88 37.55 20.23L37.70 20.38L37.52 20.05L37.53 20.06Q35.87 17.14 31.45 16.76L31.52 16.83L31.49 16.80Q28.85 16.71 21.84 15.99L21.82 15.96L21.76 15.91Q18.62 15.58 14.92 13.56L14.85 13.49L14.92 13.56Q19.62 20.81 19.62 29.56L19.64 29.58L19.69 29.63Q19.57 36.52 16.22 42.68L16.31 42.77L16.22 42.68Q16.93 42.44 18.26 41.95L18.24 41.92L18.34 42.03Q18.05 42.91 17.17 44.40L17.18 44.40L17.05 44.28Q20.24 43.36 23.59 42.86L23.50 42.76L23.50 42.77Q25.49 42.36 29.15 42.25L29.14 42.24L29.26 42.37Q33.04 42.14 34.87 41.95ZM34.87 28.30L35.01 28.43L34.87 28.29Q34.54 36.34 27.84 36.72L27.86 36.74L27.94 36.81Q25.89 36.83 23.84 37.09L23.83 37.08L23.99 37.24Q24.66 33.34 24.66 29.69L24.64 29.67L24.52 29.55Q24.58 25.92 23.86 22.08L23.77 21.99L23.84 22.05Q26.11 22.42 30.79 22.42L30.90 22.53L30.87 22.50Q32.14 22.25 33.77 23.20L33.88 23.30L33.89 23.31Q35.13 25.55 34.98 28.40Z"/><path d="M13 18 C84 43,63 32,137 44" stroke="#e9e971" fill="none"/></svg>